<svg version="1.0" xmlns="http://www.w3.org/2000/svg" width="1365.333" height="1365.333" viewBox="0 0 1024 1024"><path d="M481.7 64.1c-79.6 5.1-162.3 34.2-227.1 80.1-40.9 28.9-81.5 69.5-110.4 110.4-42.9 60.6-70.2 133.8-78.9 211.6-2.3 21.3-2.3 70.3 0 91.6 11.6 103.4 54.4 194.8 125.1 267.1 75 76.6 167.8 121.6 275.8 133.8 21.3 2.4 70.3 2.4 91.6 0C652.7 948 738 910.9 807 850.3c86.6-76.1 138.7-176.7 151.7-292.5 2.3-21.3 2.3-70.3 0-91.6-7.6-68.1-28.2-129.5-62.4-186-19.5-32.3-38.8-56.8-67.3-85.2-37.1-37.2-74.3-64-119.5-86-71.4-34.9-148.1-50-227.8-44.9zm149.1 254c29.5 3.2 54.7 11.8 76 26.1 11.1 7.4 28.5 25.2 36.5 37.3 19.8 30.1 30.1 66.9 32.8 117.6 2.2 41.6-1.8 74.1-12.4 101.6-18.3 47.3-55 82.9-100.9 97.7-13 4.3-23.6 6.3-39.3 7.6-14.4 1.2-169.5 1.3-169.5.2 0-.5 1.6-4.1 3.6-8.1 5.6-11.4 8.4-24.2 9.1-40.9l.6-14.2H539c78.8 0 80.9-.1 95.8-6.1 20.6-8.2 36.4-23.8 47.7-47.3 12.5-25.9 17.2-51.7 16.2-87.1-1.3-41.9-10.5-73.2-27.8-95-9.7-12.2-21.1-19.6-36.4-23.5-6.7-1.7-11.1-2-30.8-2h-22.9l1.7-2.6c3.1-4.8 6.6-15.7 7.6-23.8 1.5-12.1-1.1-24.1-7.9-36.8-.2-.3.7-.8 2-1.1 4.8-.9 37.3-.7 46.6.4zm-83.6 3.2c22.6 11.1 22.9 43 .5 54.9-4.2 2.3-4.6 2.3-55.2 2.8l-51 .5-.5 149-.5 149-3.2 6.6c-4.2 8.5-12.9 16.8-21 20-8 3.1-19.6 3.1-27.4 0-9.4-3.6-18.6-13.1-22.7-23.3-1.6-4-1.7-15.7-2.2-152.8l-.5-148.5-51-.5c-49.8-.5-51.1-.6-55-2.7-16.6-8.9-21.8-29.6-11.3-45 3.7-5.5 8.7-9.2 15.1-11.5 4.9-1.7 12.7-1.7 142.7-1.5l137.5.2 5.7 2.8z"/></svg>