<?xml version="1.0" standalone="no"?>
<!DOCTYPE svg PUBLIC "-//W3C//DTD SVG 20010904//EN"
 "http://www.w3.org/TR/2001/REC-SVG-20010904/DTD/svg10.dtd">
<svg version="1.0" xmlns="http://www.w3.org/2000/svg"
 width="1024.000000pt" height="1024.000000pt" viewBox="0 0 1024.000000 1024.000000"
 preserveAspectRatio="xMidYMid meet">
<metadata>
Created by potrace 1.11, written by Peter Selinger 2001-2013
</metadata>
<g transform="translate(0.000000,1024.000000) scale(0.100000,-0.100000)"
fill="#000000" stroke="none">
<path d="M4817 9599 c-796 -51 -1623 -342 -2271 -801 -409 -289 -815 -695
-1104 -1104 -429 -606 -702 -1338 -789 -2116 -23 -213 -23 -703 0 -916 116
-1034 544 -1948 1251 -2671 750 -766 1678 -1216 2758 -1338 213 -24 703 -24
916 0 949 107 1802 478 2492 1084 866 761 1387 1767 1517 2925 23 213 23 703
0 916 -76 681 -282 1295 -624 1860 -195 323 -388 568 -673 852 -371 372 -743
640 -1195 860 -714 349 -1481 500 -2278 449z m1491 -2540 c295 -32 547 -118
760 -261 111 -74 285 -252 365 -373 198 -301 301 -669 328 -1176 22 -416 -18
-741 -124 -1016 -183 -473 -550 -829 -1009 -977 -130 -43 -236 -63 -393 -76
-144 -12 -1695 -13 -1695 -2 0 5 16 41 36 81 56 114 84 242 91 409 l6 142 717
0 c788 0 809 1 958 61 206 82 364 238 477 473 125 259 172 517 162 871 -13
419 -105 732 -278 950 -97 122 -211 196 -364 235 -67 17 -111 20 -308 20
l-229 0 17 26 c31 48 66 157 76 238 15 121 -11 241 -79 368 -2 3 7 8 20 11 48
9 373 7 466 -4z m-836 -32 c226 -111 229 -430 5 -549 -42 -23 -46 -23 -552
-28 l-510 -5 -5 -1490 -5 -1490 -32 -66 c-42 -85 -129 -168 -210 -200 -80 -31
-196 -31 -274 0 -94 36 -186 131 -227 233 -16 40 -17 157 -22 1528 l-5 1485
-510 5 c-498 5 -511 6 -550 27 -166 89 -218 296 -113 450 37 55 87 92 151 115
49 17 127 17 1427 15 l1375 -2 57 -28z"/>
</g>
</svg>
